<?xml version="1.0" standalone="no"?>
<!DOCTYPE svg PUBLIC "-//W3C//DTD SVG 20010904//EN"
 "http://www.w3.org/TR/2001/REC-SVG-20010904/DTD/svg10.dtd">
<svg version="1.0" xmlns="http://www.w3.org/2000/svg"
 width="400.000000pt" height="400.000000pt" viewBox="0 0 400.000000 400.000000"
 preserveAspectRatio="xMidYMid meet">
<metadata>
Created by potrace 1.14, written by Peter Selinger 2001-2017
</metadata>
<g transform="translate(0.000000,400.000000) scale(0.100000,-0.100000)"
fill="#000000" stroke="none">
<path d="M0 2000 l0 -2000 100 0 100 0 0 63 c0 141 33 185 204 267 120 58 259
108 411 150 44 12 138 49 208 82 70 33 129 59 131 57 3 -2 -2 -29 -10 -59 -24
-95 -13 -195 33 -289 48 -100 251 -276 309 -269 25 3 21 7 -47 52 -91 60 -179
143 -218 205 -54 85 -75 205 -51 293 9 30 17 39 53 51 23 9 66 26 95 38 l53
23 38 -42 c43 -47 128 -89 197 -99 28 -4 48 -12 54 -24 13 -23 60 -218 60
-246 0 -13 -16 -40 -35 -62 -43 -47 -44 -58 -5 -34 67 39 72 79 35 256 -10 48
-16 89 -14 91 2 2 48 9 101 16 195 23 287 63 411 179 139 132 219 239 331 446
79 146 81 147 85 35 5 -155 60 -322 146 -446 30 -43 55 -74 55 -69 0 6 -18 44
-40 85 -22 41 -40 79 -40 84 0 4 17 -7 38 -26 21 -19 84 -65 140 -101 55 -37
104 -72 108 -78 4 -6 6 -36 6 -67 -1 -161 -208 -398 -459 -527 -66 -34 -67
-35 -32 -35 54 0 196 89 301 189 151 143 223 276 216 399 -2 34 0 62 4 62 4 0
25 -15 46 -34 47 -43 169 -100 399 -186 100 -37 214 -85 255 -107 87 -45 199
-151 215 -203 8 -25 11 503 12 1923 l1 1957 -2000 0 -2000 0 0 -2000z m1764
1240 c42 -11 123 -39 179 -64 158 -68 202 -79 327 -75 l108 4 42 -63 c23 -35
65 -86 93 -115 55 -56 66 -88 67 -178 0 -39 -5 -61 -15 -69 -19 -16 -13 -54
26 -167 16 -45 29 -84 29 -87 0 -4 -13 0 -30 9 -19 10 -57 15 -109 15 -45 0
-116 9 -163 20 -238 57 -432 23 -535 -94 -39 -45 -40 -45 -78 -35 -45 13 -149
4 -184 -15 -22 -12 -29 -10 -78 25 -30 21 -78 46 -106 55 -57 19 -166 24 -239
10 l-48 -8 0 36 c0 30 5 38 28 48 44 19 256 15 327 -6 57 -17 60 -17 72 0 30
41 -3 84 -81 105 -58 16 -209 6 -278 -18 l-58 -20 0 32 c0 54 39 252 62 312
21 59 83 147 134 194 16 14 49 33 74 42 25 10 78 42 119 72 l74 55 82 0 c49 0
113 -8 159 -20z m874 -936 c21 -14 22 -21 22 -127 1 -61 7 -148 15 -192 23
-126 16 -319 -11 -308 -9 3 -14 -2 -14 -17 0 -13 -4 -19 -11 -14 -8 5 -10 -3
-7 -25 2 -17 2 -31 -2 -31 -8 0 -30 -85 -30 -119 0 -15 -13 -55 -30 -87 -16
-32 -30 -66 -31 -74 0 -8 -5 -4 -11 10 -7 18 -12 21 -15 10 -10 -34 -45 -100
-53 -100 -5 0 -11 6 -14 13 -3 6 -5 -1 -5 -18 2 -78 0 -86 -20 -75 -29 15 -31
13 -31 -26 0 -31 -2 -35 -15 -24 -13 11 -15 7 -16 -26 l-1 -39 -18 50 -18 50
5 -56 c4 -36 2 -59 -6 -63 -7 -5 -9 -31 -6 -79 l6 -72 -16 35 c-9 19 -17 47
-19 63 -5 41 -18 48 -16 7 3 -53 1 -60 -15 -60 -8 0 -15 -5 -15 -11 0 -5 -5
-7 -11 -3 -15 9 -30 -16 -23 -41 5 -19 4 -19 -9 -3 -18 22 -28 12 -22 -21 4
-19 0 -15 -15 14 l-19 40 -1 -32 c0 -18 -4 -33 -10 -33 -5 0 -10 7 -10 15 0 8
-3 15 -7 15 -5 0 -8 -28 -8 -62 0 -40 -4 -63 -12 -66 -7 -2 -13 -13 -13 -25
-1 -22 -1 -22 -15 -3 -15 19 -15 19 -15 -4 0 -19 -3 -21 -12 -12 -19 19 -45
14 -67 -14 -11 -15 -25 -23 -32 -19 -6 4 -14 4 -18 -1 -16 -24 -60 -40 -108
-39 -33 0 -55 -5 -58 -12 -6 -17 -47 -12 -62 7 -11 13 -13 12 -13 -5 -1 -16
-4 -14 -14 9 -8 18 -16 24 -20 17 -4 -6 -12 -9 -17 -6 -5 3 -6 -1 -3 -9 3 -9
1 -16 -5 -16 -7 0 -17 14 -22 30 -6 17 -14 30 -17 31 -32 3 -58 11 -66 19 -6
6 -20 10 -32 10 -13 0 -26 5 -29 10 -4 6 -11 8 -16 4 -6 -3 -13 3 -16 15 -3
11 -9 19 -13 16 -5 -3 -11 14 -15 36 -5 30 -10 38 -16 28 -7 -9 -8 -5 -3 13 4
21 0 33 -20 53 -14 14 -26 35 -26 46 0 11 -4 17 -10 14 -5 -3 -12 7 -15 22 -7
30 -26 75 -36 83 -15 12 -29 51 -23 62 4 7 3 8 -4 4 -7 -4 -15 8 -22 33 -5 21
-17 44 -25 51 -8 7 -15 18 -15 25 0 7 -7 18 -15 25 -19 16 -92 250 -120 385
-25 120 -43 320 -29 314 5 -2 36 -17 69 -34 52 -26 70 -30 140 -29 135 1 211
50 269 173 23 52 31 83 34 149 4 79 6 84 31 94 26 10 145 7 156 -4 4 -3 9 -26
11 -50 9 -89 44 -159 114 -228 83 -83 152 -110 281 -110 79 0 93 3 157 35 110
55 163 131 198 281 9 38 18 75 20 81 2 7 18 22 36 33 35 22 65 20 106 -6z
m241 -38 c31 -32 32 -36 32 -114 0 -67 -7 -100 -41 -201 -28 -85 -40 -136 -40
-178 0 -69 -23 -118 -70 -150 -48 -33 -64 -31 -56 10 4 17 11 109 16 202 5 94
18 226 29 295 17 110 22 127 46 147 35 30 45 29 84 -11z"/>
<path d="M2060 2655 c-25 -8 -70 -16 -100 -18 -54 -4 -56 -5 -77 -48 -20 -37
-23 -40 -24 -19 0 23 -1 23 -8 5 -9 -22 -4 -43 15 -62 9 -10 27 -8 80 8 141
41 171 48 244 57 41 6 105 8 142 5 37 -3 75 -3 85 1 14 6 11 11 -22 31 -81 49
-101 55 -197 54 -51 0 -113 -7 -138 -14z"/>
<path d="M1440 1913 c-41 -50 -94 -158 -87 -178 8 -20 27 -19 27 1 0 9 22 61
49 115 27 54 48 99 46 99 -2 0 -18 -17 -35 -37z"/>
<path d="M1740 1682 c-32 -5 -80 -39 -80 -58 0 -19 9 -18 45 6 17 11 48 20 70
21 22 1 51 4 65 8 22 6 18 8 -25 17 -27 5 -61 8 -75 6z"/>
<path d="M1395 1669 c-11 -16 2 -23 63 -35 31 -7 73 -15 92 -19 32 -7 34 -6
15 7 -23 17 -129 58 -150 58 -8 0 -17 -5 -20 -11z"/>
<path d="M1302 1369 c2 -16 14 -29 35 -38 27 -12 37 -27 58 -81 44 -115 114
-189 209 -220 63 -20 208 -8 279 23 79 36 176 124 222 203 21 35 41 64 45 64
16 0 20 34 5 49 -13 14 -18 14 -43 -1 -15 -8 -64 -18 -112 -22 -47 -3 -110
-13 -140 -20 l-55 -14 55 -2 c30 -1 69 -5 85 -9 28 -6 26 -8 -42 -33 -112 -42
-189 -53 -263 -39 -61 12 -170 58 -170 72 0 4 19 11 43 15 42 7 42 7 -63 34
-58 15 -116 31 -128 35 -21 7 -23 5 -20 -16z"/>
<path d="M1660 830 c0 -11 5 -20 11 -20 5 0 8 -4 4 -9 -3 -6 3 -8 14 -6 13 2
21 -4 26 -18 4 -14 8 -17 12 -9 8 21 -6 45 -23 38 -13 -5 -15 -2 -11 13 3 12
-1 22 -10 25 -22 9 -23 8 -23 -14z"/>
<path d="M1810 834 c0 -8 5 -12 10 -9 6 4 8 11 5 16 -9 14 -15 11 -15 -7z"/>
<path d="M1841 834 c0 -11 3 -14 6 -6 3 7 2 16 -1 19 -3 4 -6 -2 -5 -13z"/>
<path d="M1630 826 c0 -8 5 -18 10 -21 6 -3 10 3 10 14 0 12 -4 21 -10 21 -5
0 -10 -6 -10 -14z"/>
<path d="M1751 784 c0 -11 3 -14 6 -6 3 7 2 16 -1 19 -3 4 -6 -2 -5 -13z"/>
<path d="M2838 2193 c-27 -31 -46 -78 -69 -164 -22 -85 -22 -115 -1 -269 12
-88 23 -24 16 90 -6 92 8 210 25 210 4 0 15 -15 24 -32 15 -33 16 -33 16 -7 1
15 -7 37 -18 50 -15 20 -16 29 -7 54 27 74 47 82 61 23 6 -26 9 -29 12 -12 5
28 -13 74 -30 74 -8 0 -21 -8 -29 -17z"/>
<path d="M3991 14 c0 -11 3 -14 6 -6 3 7 2 16 -1 19 -3 4 -6 -2 -5 -13z"/>
</g>
</svg>
